<mxfile host="app.diagrams.net" modified="2023-09-24T10:20:28.920Z" agent="Mozilla/5.0 (Windows NT 10.0; Win64; x64) AppleWebKit/537.36 (KHTML, like Gecko) Chrome/116.0.0.0 Safari/537.36" etag="hZQM2e-ftbxVFDT0gZoA" version="21.8.1" type="device" pages="3">
  <diagram name="Страница — 1" id="t9uED5VoqBTK2rHfKc9C">
    <mxGraphModel dx="2876" dy="1083" grid="1" gridSize="10" guides="1" tooltips="1" connect="1" arrows="1" fold="1" page="1" pageScale="1" pageWidth="827" pageHeight="1169" math="0" shadow="0">
      <root>
        <mxCell id="0" />
        <mxCell id="1" parent="0" />
        <mxCell id="Wo51BPqTIGcGAbiIUXaj-1" value="" style="strokeWidth=1;shadow=0;dashed=0;align=center;html=1;shape=mxgraph.mockup.containers.browserWindow;rSize=0;strokeColor=#666666;strokeColor2=#008cff;strokeColor3=#c4c4c4;mainText=,;recursiveResize=0;" vertex="1" parent="1">
          <mxGeometry x="40" y="40" width="370" height="580" as="geometry" />
        </mxCell>
        <mxCell id="Wo51BPqTIGcGAbiIUXaj-2" value="Page" style="strokeWidth=1;shadow=0;dashed=0;align=center;html=1;shape=mxgraph.mockup.containers.anchor;fontSize=17;fontColor=#666666;align=left;whiteSpace=wrap;" vertex="1" parent="Wo51BPqTIGcGAbiIUXaj-1">
          <mxGeometry x="60" y="12" width="110" height="26" as="geometry" />
        </mxCell>
        <mxCell id="Wo51BPqTIGcGAbiIUXaj-3" value="https://www.lifeverseinsights" style="strokeWidth=1;shadow=0;dashed=0;align=center;html=1;shape=mxgraph.mockup.containers.anchor;rSize=0;fontSize=17;fontColor=#666666;align=left;" vertex="1" parent="Wo51BPqTIGcGAbiIUXaj-1">
          <mxGeometry x="130" y="60" width="250" height="26" as="geometry" />
        </mxCell>
        <mxCell id="Wo51BPqTIGcGAbiIUXaj-4" value="&lt;b&gt;&lt;font style=&quot;font-size: 22px;&quot;&gt;Реєстрація&lt;/font&gt;&lt;/b&gt;" style="text;html=1;strokeColor=none;fillColor=none;align=center;verticalAlign=middle;whiteSpace=wrap;rounded=0;" vertex="1" parent="Wo51BPqTIGcGAbiIUXaj-1">
          <mxGeometry x="155" y="170" width="60" height="30" as="geometry" />
        </mxCell>
        <mxCell id="Wo51BPqTIGcGAbiIUXaj-5" value="name@gmail.com" style="strokeWidth=1;shadow=0;dashed=0;align=center;html=1;shape=mxgraph.mockup.text.textBox;fontColor=#666666;align=left;fontSize=17;spacingLeft=4;spacingTop=-3;whiteSpace=wrap;strokeColor=#666666;mainText=" vertex="1" parent="Wo51BPqTIGcGAbiIUXaj-1">
          <mxGeometry x="40" y="250" width="290" height="30" as="geometry" />
        </mxCell>
        <mxCell id="Wo51BPqTIGcGAbiIUXaj-6" value="******************" style="strokeWidth=1;shadow=0;dashed=0;align=center;html=1;shape=mxgraph.mockup.text.textBox;fontColor=#666666;align=left;fontSize=17;spacingLeft=4;spacingTop=-3;whiteSpace=wrap;strokeColor=#666666;mainText=" vertex="1" parent="Wo51BPqTIGcGAbiIUXaj-1">
          <mxGeometry x="40" y="310" width="290" height="30" as="geometry" />
        </mxCell>
        <mxCell id="Wo51BPqTIGcGAbiIUXaj-7" value="&lt;b&gt;&lt;font style=&quot;font-size: 15px;&quot;&gt;Зареєструватись&lt;/font&gt;&lt;/b&gt;" style="rounded=1;fillColor=#0057D8;strokeColor=none;html=1;whiteSpace=wrap;fontColor=#ffffff;align=center;verticalAlign=middle;fontStyle=0;fontSize=12;sketch=0;" vertex="1" parent="Wo51BPqTIGcGAbiIUXaj-1">
          <mxGeometry x="106.82" y="390" width="156.36" height="60" as="geometry" />
        </mxCell>
        <mxCell id="Wo51BPqTIGcGAbiIUXaj-8" value="&lt;font style=&quot;font-size: 14px;&quot;&gt;&lt;b&gt;Вже маю&lt;br&gt;акаунт&lt;/b&gt;&lt;br&gt;&lt;/font&gt;" style="rounded=1;fillColor=#0057D8;strokeColor=none;html=1;whiteSpace=wrap;fontColor=#ffffff;align=center;verticalAlign=middle;fontStyle=0;fontSize=12;sketch=0;" vertex="1" parent="Wo51BPqTIGcGAbiIUXaj-1">
          <mxGeometry x="132.88" y="470" width="104.24" height="40" as="geometry" />
        </mxCell>
        <mxCell id="Wo51BPqTIGcGAbiIUXaj-9" value="" style="strokeWidth=1;shadow=0;dashed=0;align=center;html=1;shape=mxgraph.mockup.containers.browserWindow;rSize=0;strokeColor=#666666;strokeColor2=#008cff;strokeColor3=#c4c4c4;mainText=,;recursiveResize=0;" vertex="1" parent="1">
          <mxGeometry x="520" y="40" width="370" height="580" as="geometry" />
        </mxCell>
        <mxCell id="Wo51BPqTIGcGAbiIUXaj-10" value="Page" style="strokeWidth=1;shadow=0;dashed=0;align=center;html=1;shape=mxgraph.mockup.containers.anchor;fontSize=17;fontColor=#666666;align=left;whiteSpace=wrap;" vertex="1" parent="Wo51BPqTIGcGAbiIUXaj-9">
          <mxGeometry x="60" y="12" width="110" height="26" as="geometry" />
        </mxCell>
        <mxCell id="Wo51BPqTIGcGAbiIUXaj-11" value="https://www.lifeverseinsights" style="strokeWidth=1;shadow=0;dashed=0;align=center;html=1;shape=mxgraph.mockup.containers.anchor;rSize=0;fontSize=17;fontColor=#666666;align=left;" vertex="1" parent="Wo51BPqTIGcGAbiIUXaj-9">
          <mxGeometry x="130" y="60" width="250" height="26" as="geometry" />
        </mxCell>
        <mxCell id="Wo51BPqTIGcGAbiIUXaj-12" value="&lt;b&gt;&lt;font style=&quot;font-size: 22px;&quot;&gt;Авторизація&lt;/font&gt;&lt;/b&gt;" style="text;html=1;strokeColor=none;fillColor=none;align=center;verticalAlign=middle;whiteSpace=wrap;rounded=0;" vertex="1" parent="Wo51BPqTIGcGAbiIUXaj-9">
          <mxGeometry x="155" y="170" width="60" height="30" as="geometry" />
        </mxCell>
        <mxCell id="Wo51BPqTIGcGAbiIUXaj-13" value="name@gmail.com" style="strokeWidth=1;shadow=0;dashed=0;align=center;html=1;shape=mxgraph.mockup.text.textBox;fontColor=#666666;align=left;fontSize=17;spacingLeft=4;spacingTop=-3;whiteSpace=wrap;strokeColor=#666666;mainText=" vertex="1" parent="Wo51BPqTIGcGAbiIUXaj-9">
          <mxGeometry x="40" y="250" width="290" height="30" as="geometry" />
        </mxCell>
        <mxCell id="Wo51BPqTIGcGAbiIUXaj-14" value="******************" style="strokeWidth=1;shadow=0;dashed=0;align=center;html=1;shape=mxgraph.mockup.text.textBox;fontColor=#666666;align=left;fontSize=17;spacingLeft=4;spacingTop=-3;whiteSpace=wrap;strokeColor=#666666;mainText=" vertex="1" parent="Wo51BPqTIGcGAbiIUXaj-9">
          <mxGeometry x="40" y="310" width="290" height="30" as="geometry" />
        </mxCell>
        <mxCell id="Wo51BPqTIGcGAbiIUXaj-15" value="&lt;b&gt;&lt;font style=&quot;font-size: 15px;&quot;&gt;Авторизуватись&lt;/font&gt;&lt;/b&gt;" style="rounded=1;fillColor=#0057D8;strokeColor=none;html=1;whiteSpace=wrap;fontColor=#ffffff;align=center;verticalAlign=middle;fontStyle=0;fontSize=12;sketch=0;" vertex="1" parent="Wo51BPqTIGcGAbiIUXaj-9">
          <mxGeometry x="106.82" y="390" width="156.36" height="60" as="geometry" />
        </mxCell>
        <mxCell id="Wo51BPqTIGcGAbiIUXaj-16" value="&lt;font style=&quot;font-size: 14px;&quot;&gt;&lt;b&gt;Не маю&lt;br&gt;акаунту&lt;/b&gt;&lt;br&gt;&lt;/font&gt;" style="rounded=1;fillColor=#0057D8;strokeColor=none;html=1;whiteSpace=wrap;fontColor=#ffffff;align=center;verticalAlign=middle;fontStyle=0;fontSize=12;sketch=0;" vertex="1" parent="Wo51BPqTIGcGAbiIUXaj-9">
          <mxGeometry x="132.88" y="470" width="104.24" height="40" as="geometry" />
        </mxCell>
        <mxCell id="Wo51BPqTIGcGAbiIUXaj-17" value="" style="endArrow=classic;html=1;rounded=0;exitX=1;exitY=0.5;exitDx=0;exitDy=0;entryX=0.486;entryY=-0.002;entryDx=0;entryDy=0;entryPerimeter=0;" edge="1" parent="1" source="Wo51BPqTIGcGAbiIUXaj-7" target="Wo51BPqTIGcGAbiIUXaj-21">
          <mxGeometry width="50" height="50" relative="1" as="geometry">
            <mxPoint x="450" y="380" as="sourcePoint" />
            <mxPoint x="470" y="710" as="targetPoint" />
          </mxGeometry>
        </mxCell>
        <mxCell id="Wo51BPqTIGcGAbiIUXaj-18" value="" style="endArrow=classic;html=1;rounded=0;exitX=0;exitY=0.5;exitDx=0;exitDy=0;entryX=0.541;entryY=-0.002;entryDx=0;entryDy=0;entryPerimeter=0;" edge="1" parent="1" source="Wo51BPqTIGcGAbiIUXaj-15" target="Wo51BPqTIGcGAbiIUXaj-21">
          <mxGeometry width="50" height="50" relative="1" as="geometry">
            <mxPoint x="490" y="610" as="sourcePoint" />
            <mxPoint x="470" y="710" as="targetPoint" />
          </mxGeometry>
        </mxCell>
        <mxCell id="Wo51BPqTIGcGAbiIUXaj-19" value="" style="endArrow=classic;html=1;rounded=0;exitX=1;exitY=0.5;exitDx=0;exitDy=0;entryX=-0.005;entryY=0.545;entryDx=0;entryDy=0;entryPerimeter=0;" edge="1" parent="1" source="Wo51BPqTIGcGAbiIUXaj-8" target="Wo51BPqTIGcGAbiIUXaj-9">
          <mxGeometry width="50" height="50" relative="1" as="geometry">
            <mxPoint x="320" y="690" as="sourcePoint" />
            <mxPoint x="370" y="640" as="targetPoint" />
          </mxGeometry>
        </mxCell>
        <mxCell id="Wo51BPqTIGcGAbiIUXaj-20" value="" style="endArrow=classic;html=1;rounded=0;exitX=0;exitY=0.5;exitDx=0;exitDy=0;entryX=1.004;entryY=0.547;entryDx=0;entryDy=0;entryPerimeter=0;" edge="1" parent="1" source="Wo51BPqTIGcGAbiIUXaj-16" target="Wo51BPqTIGcGAbiIUXaj-1">
          <mxGeometry width="50" height="50" relative="1" as="geometry">
            <mxPoint x="500" y="640" as="sourcePoint" />
            <mxPoint x="550" y="590" as="targetPoint" />
          </mxGeometry>
        </mxCell>
        <mxCell id="Wo51BPqTIGcGAbiIUXaj-21" value="" style="strokeWidth=1;shadow=0;dashed=0;align=center;html=1;shape=mxgraph.mockup.containers.browserWindow;rSize=0;strokeColor=#666666;strokeColor2=#008cff;strokeColor3=#c4c4c4;mainText=,;recursiveResize=0;" vertex="1" parent="1">
          <mxGeometry x="280" y="710" width="370" height="580" as="geometry" />
        </mxCell>
        <mxCell id="Wo51BPqTIGcGAbiIUXaj-22" value="Page" style="strokeWidth=1;shadow=0;dashed=0;align=center;html=1;shape=mxgraph.mockup.containers.anchor;fontSize=17;fontColor=#666666;align=left;whiteSpace=wrap;" vertex="1" parent="Wo51BPqTIGcGAbiIUXaj-21">
          <mxGeometry x="60" y="12" width="110" height="26" as="geometry" />
        </mxCell>
        <mxCell id="Wo51BPqTIGcGAbiIUXaj-23" value="https://www.lifeverseinsights" style="strokeWidth=1;shadow=0;dashed=0;align=center;html=1;shape=mxgraph.mockup.containers.anchor;rSize=0;fontSize=17;fontColor=#666666;align=left;" vertex="1" parent="Wo51BPqTIGcGAbiIUXaj-21">
          <mxGeometry x="130" y="60" width="250" height="26" as="geometry" />
        </mxCell>
        <mxCell id="Wo51BPqTIGcGAbiIUXaj-24" value="&lt;b&gt;&lt;font style=&quot;font-size: 22px;&quot;&gt;Меню&lt;/font&gt;&lt;/b&gt;" style="text;html=1;strokeColor=none;fillColor=none;align=center;verticalAlign=middle;whiteSpace=wrap;rounded=0;" vertex="1" parent="Wo51BPqTIGcGAbiIUXaj-21">
          <mxGeometry x="155" y="170" width="60" height="30" as="geometry" />
        </mxCell>
        <mxCell id="Wo51BPqTIGcGAbiIUXaj-25" value="&amp;nbsp; &amp;nbsp; &amp;nbsp; &amp;nbsp; &amp;nbsp; &amp;nbsp; &amp;nbsp; &amp;nbsp;Фізичне здоров&#39;я" style="strokeWidth=1;shadow=0;dashed=0;align=center;html=1;shape=mxgraph.mockup.text.textBox;fontColor=#666666;align=left;fontSize=17;spacingLeft=4;spacingTop=-3;whiteSpace=wrap;strokeColor=#666666;mainText=" vertex="1" parent="Wo51BPqTIGcGAbiIUXaj-21">
          <mxGeometry x="40" y="250" width="290" height="40" as="geometry" />
        </mxCell>
        <mxCell id="Wo51BPqTIGcGAbiIUXaj-26" value="&lt;span style=&quot;white-space: pre;&quot;&gt;&#x9;&lt;/span&gt;&lt;span style=&quot;white-space: pre;&quot;&gt;&#x9;&lt;/span&gt;&amp;nbsp; &amp;nbsp; Література" style="strokeWidth=1;shadow=0;dashed=0;align=center;html=1;shape=mxgraph.mockup.text.textBox;fontColor=#666666;align=left;fontSize=17;spacingLeft=4;spacingTop=-3;whiteSpace=wrap;strokeColor=#666666;mainText=" vertex="1" parent="Wo51BPqTIGcGAbiIUXaj-21">
          <mxGeometry x="40" y="310" width="290" height="40" as="geometry" />
        </mxCell>
        <mxCell id="Wo51BPqTIGcGAbiIUXaj-29" value="&lt;span style=&quot;white-space: pre;&quot;&gt;&#x9;&lt;span style=&quot;white-space: pre;&quot;&gt;&#x9;&lt;/span&gt; &lt;/span&gt;&amp;nbsp; &amp;nbsp; Підтримка" style="strokeWidth=1;shadow=0;dashed=0;align=center;html=1;shape=mxgraph.mockup.text.textBox;fontColor=#666666;align=left;fontSize=17;spacingLeft=4;spacingTop=-3;whiteSpace=wrap;strokeColor=#666666;mainText=" vertex="1" parent="Wo51BPqTIGcGAbiIUXaj-21">
          <mxGeometry x="40" y="370" width="290" height="40" as="geometry" />
        </mxCell>
        <mxCell id="Wo51BPqTIGcGAbiIUXaj-30" value="" style="strokeWidth=1;shadow=0;dashed=0;align=center;html=1;shape=mxgraph.mockup.containers.browserWindow;rSize=0;strokeColor=#666666;strokeColor2=#008cff;strokeColor3=#c4c4c4;mainText=,;recursiveResize=0;" vertex="1" parent="1">
          <mxGeometry x="-200" y="710" width="370" height="580" as="geometry" />
        </mxCell>
        <mxCell id="Wo51BPqTIGcGAbiIUXaj-31" value="Page" style="strokeWidth=1;shadow=0;dashed=0;align=center;html=1;shape=mxgraph.mockup.containers.anchor;fontSize=17;fontColor=#666666;align=left;whiteSpace=wrap;" vertex="1" parent="Wo51BPqTIGcGAbiIUXaj-30">
          <mxGeometry x="60" y="12" width="110" height="26" as="geometry" />
        </mxCell>
        <mxCell id="Wo51BPqTIGcGAbiIUXaj-32" value="https://www.lifeverseinsights" style="strokeWidth=1;shadow=0;dashed=0;align=center;html=1;shape=mxgraph.mockup.containers.anchor;rSize=0;fontSize=17;fontColor=#666666;align=left;" vertex="1" parent="Wo51BPqTIGcGAbiIUXaj-30">
          <mxGeometry x="130" y="60" width="250" height="26" as="geometry" />
        </mxCell>
        <mxCell id="Wo51BPqTIGcGAbiIUXaj-33" value="&lt;b&gt;&lt;font style=&quot;font-size: 22px;&quot;&gt;Фізичне здоров&#39;я&lt;/font&gt;&lt;/b&gt;" style="text;html=1;strokeColor=none;fillColor=none;align=center;verticalAlign=middle;whiteSpace=wrap;rounded=0;" vertex="1" parent="Wo51BPqTIGcGAbiIUXaj-30">
          <mxGeometry x="82.5" y="170" width="205" height="30" as="geometry" />
        </mxCell>
        <mxCell id="Wo51BPqTIGcGAbiIUXaj-34" value="&lt;span style=&quot;white-space: pre;&quot;&gt;&#x9;&lt;/span&gt;&lt;span style=&quot;white-space: pre;&quot;&gt;&#x9;&lt;/span&gt;&amp;nbsp; &amp;nbsp; &amp;nbsp;Написати&lt;br&gt;&lt;span style=&quot;white-space: pre;&quot;&gt;&#x9;&lt;/span&gt;&amp;nbsp; медичному працівнику" style="strokeWidth=1;shadow=0;dashed=0;align=center;html=1;shape=mxgraph.mockup.text.textBox;fontColor=#666666;align=left;fontSize=17;spacingLeft=4;spacingTop=-3;whiteSpace=wrap;strokeColor=#666666;mainText=" vertex="1" parent="Wo51BPqTIGcGAbiIUXaj-30">
          <mxGeometry x="40" y="250" width="290" height="40" as="geometry" />
        </mxCell>
        <mxCell id="Wo51BPqTIGcGAbiIUXaj-37" value="" style="endArrow=classic;html=1;rounded=0;exitX=0;exitY=0.5;exitDx=0;exitDy=0;exitPerimeter=0;entryX=1.003;entryY=0.466;entryDx=0;entryDy=0;entryPerimeter=0;" edge="1" parent="1" source="Wo51BPqTIGcGAbiIUXaj-25" target="Wo51BPqTIGcGAbiIUXaj-30">
          <mxGeometry width="50" height="50" relative="1" as="geometry">
            <mxPoint x="220" y="1130" as="sourcePoint" />
            <mxPoint x="270" y="1080" as="targetPoint" />
          </mxGeometry>
        </mxCell>
        <mxCell id="Wo51BPqTIGcGAbiIUXaj-38" value="" style="strokeWidth=1;shadow=0;dashed=0;align=center;html=1;shape=mxgraph.mockup.containers.browserWindow;rSize=0;strokeColor=#666666;strokeColor2=#008cff;strokeColor3=#c4c4c4;mainText=,;recursiveResize=0;" vertex="1" parent="1">
          <mxGeometry x="-680" y="710" width="370" height="580" as="geometry" />
        </mxCell>
        <mxCell id="Wo51BPqTIGcGAbiIUXaj-39" value="Page" style="strokeWidth=1;shadow=0;dashed=0;align=center;html=1;shape=mxgraph.mockup.containers.anchor;fontSize=17;fontColor=#666666;align=left;whiteSpace=wrap;" vertex="1" parent="Wo51BPqTIGcGAbiIUXaj-38">
          <mxGeometry x="60" y="12" width="110" height="26" as="geometry" />
        </mxCell>
        <mxCell id="Wo51BPqTIGcGAbiIUXaj-40" value="https://www.lifeverseinsights" style="strokeWidth=1;shadow=0;dashed=0;align=center;html=1;shape=mxgraph.mockup.containers.anchor;rSize=0;fontSize=17;fontColor=#666666;align=left;" vertex="1" parent="Wo51BPqTIGcGAbiIUXaj-38">
          <mxGeometry x="130" y="60" width="250" height="26" as="geometry" />
        </mxCell>
        <mxCell id="Wo51BPqTIGcGAbiIUXaj-54" value="Chat" style="strokeWidth=1;shadow=0;dashed=0;align=center;html=1;shape=mxgraph.mockup.containers.window;align=left;verticalAlign=top;spacingLeft=8;strokeColor2=#008cff;strokeColor3=#c4c4c4;fontColor=#666666;mainText=;fontSize=17;labelBackgroundColor=none;whiteSpace=wrap;" vertex="1" parent="Wo51BPqTIGcGAbiIUXaj-38">
          <mxGeometry x="10" y="120" width="350" height="450" as="geometry" />
        </mxCell>
        <mxCell id="Wo51BPqTIGcGAbiIUXaj-52" value="" style="verticalLabelPosition=bottom;shadow=0;dashed=0;align=center;html=1;verticalAlign=top;strokeWidth=1;shape=mxgraph.mockup.containers.userMale;strokeColor=#666666;strokeColor2=#008cff;" vertex="1" parent="Wo51BPqTIGcGAbiIUXaj-38">
          <mxGeometry x="30" y="240" width="60" height="60" as="geometry" />
        </mxCell>
        <mxCell id="Wo51BPqTIGcGAbiIUXaj-55" value="" style="shape=callout;whiteSpace=wrap;html=1;perimeter=calloutPerimeter;size=30;position=0.11;position2=0;" vertex="1" parent="Wo51BPqTIGcGAbiIUXaj-38">
          <mxGeometry x="100" y="180" width="240" height="80" as="geometry" />
        </mxCell>
        <mxCell id="Wo51BPqTIGcGAbiIUXaj-51" value="" style="verticalLabelPosition=bottom;shadow=0;dashed=0;align=center;html=1;verticalAlign=top;strokeWidth=1;shape=mxgraph.mockup.containers.userFemale;strokeColor=#666666;strokeColor2=#008cff;" vertex="1" parent="Wo51BPqTIGcGAbiIUXaj-38">
          <mxGeometry x="280" y="430" width="60" height="60" as="geometry" />
        </mxCell>
        <mxCell id="Wo51BPqTIGcGAbiIUXaj-56" value="" style="shape=callout;whiteSpace=wrap;html=1;perimeter=calloutPerimeter;size=30;position=0.8;position2=0.97;base=19;" vertex="1" parent="Wo51BPqTIGcGAbiIUXaj-38">
          <mxGeometry x="30" y="370" width="240" height="80" as="geometry" />
        </mxCell>
        <mxCell id="Wo51BPqTIGcGAbiIUXaj-43" value="" style="strokeWidth=1;shadow=0;dashed=0;align=center;html=1;shape=mxgraph.mockup.containers.browserWindow;rSize=0;strokeColor=#666666;strokeColor2=#008cff;strokeColor3=#c4c4c4;mainText=,;recursiveResize=0;" vertex="1" parent="1">
          <mxGeometry x="760" y="710" width="370" height="580" as="geometry" />
        </mxCell>
        <mxCell id="Wo51BPqTIGcGAbiIUXaj-44" value="Page" style="strokeWidth=1;shadow=0;dashed=0;align=center;html=1;shape=mxgraph.mockup.containers.anchor;fontSize=17;fontColor=#666666;align=left;whiteSpace=wrap;" vertex="1" parent="Wo51BPqTIGcGAbiIUXaj-43">
          <mxGeometry x="60" y="12" width="110" height="26" as="geometry" />
        </mxCell>
        <mxCell id="Wo51BPqTIGcGAbiIUXaj-45" value="https://www.lifeverseinsights" style="strokeWidth=1;shadow=0;dashed=0;align=center;html=1;shape=mxgraph.mockup.containers.anchor;rSize=0;fontSize=17;fontColor=#666666;align=left;" vertex="1" parent="Wo51BPqTIGcGAbiIUXaj-43">
          <mxGeometry x="130" y="60" width="250" height="26" as="geometry" />
        </mxCell>
        <mxCell id="Wo51BPqTIGcGAbiIUXaj-46" value="&lt;b&gt;&lt;font style=&quot;font-size: 22px;&quot;&gt;Література&lt;/font&gt;&lt;/b&gt;" style="text;html=1;strokeColor=none;fillColor=none;align=center;verticalAlign=middle;whiteSpace=wrap;rounded=0;" vertex="1" parent="Wo51BPqTIGcGAbiIUXaj-43">
          <mxGeometry x="155" y="170" width="60" height="30" as="geometry" />
        </mxCell>
        <mxCell id="Wo51BPqTIGcGAbiIUXaj-47" value="&lt;span style=&quot;white-space: pre;&quot;&gt;&#x9;&lt;/span&gt;&lt;span style=&quot;white-space: pre;&quot;&gt;&#x9;&lt;/span&gt;&lt;span style=&quot;white-space: pre;&quot;&gt;&#x9;&lt;/span&gt;&amp;nbsp;Книги" style="strokeWidth=1;shadow=0;dashed=0;align=center;html=1;shape=mxgraph.mockup.text.textBox;fontColor=#666666;align=left;fontSize=17;spacingLeft=4;spacingTop=-3;whiteSpace=wrap;strokeColor=#666666;mainText=" vertex="1" parent="Wo51BPqTIGcGAbiIUXaj-43">
          <mxGeometry x="40" y="250" width="290" height="40" as="geometry" />
        </mxCell>
        <mxCell id="Wo51BPqTIGcGAbiIUXaj-48" value="&lt;span style=&quot;white-space: pre;&quot;&gt;&#x9;&lt;/span&gt;&lt;span style=&quot;white-space: pre;&quot;&gt;&#x9;&lt;/span&gt;&lt;span style=&quot;white-space: pre;&quot;&gt;&#x9;&lt;/span&gt;&amp;nbsp;Вірші" style="strokeWidth=1;shadow=0;dashed=0;align=center;html=1;shape=mxgraph.mockup.text.textBox;fontColor=#666666;align=left;fontSize=17;spacingLeft=4;spacingTop=-3;whiteSpace=wrap;strokeColor=#666666;mainText=" vertex="1" parent="Wo51BPqTIGcGAbiIUXaj-43">
          <mxGeometry x="40" y="310" width="290" height="40" as="geometry" />
        </mxCell>
        <mxCell id="Wo51BPqTIGcGAbiIUXaj-49" value="&lt;span style=&quot;white-space: pre;&quot;&gt;&#x9;&lt;span style=&quot;white-space: pre;&quot;&gt;&#x9;&lt;/span&gt; &lt;/span&gt;&amp;nbsp; &amp;nbsp; &amp;nbsp; &amp;nbsp;Автори" style="strokeWidth=1;shadow=0;dashed=0;align=center;html=1;shape=mxgraph.mockup.text.textBox;fontColor=#666666;align=left;fontSize=17;spacingLeft=4;spacingTop=-3;whiteSpace=wrap;strokeColor=#666666;mainText=" vertex="1" parent="Wo51BPqTIGcGAbiIUXaj-43">
          <mxGeometry x="40" y="370" width="290" height="40" as="geometry" />
        </mxCell>
        <mxCell id="Wo51BPqTIGcGAbiIUXaj-50" value="" style="endArrow=classic;html=1;rounded=0;exitX=0.994;exitY=0.494;exitDx=0;exitDy=0;exitPerimeter=0;entryX=-0.009;entryY=0.569;entryDx=0;entryDy=0;entryPerimeter=0;" edge="1" parent="1" source="Wo51BPqTIGcGAbiIUXaj-26" target="Wo51BPqTIGcGAbiIUXaj-43">
          <mxGeometry width="50" height="50" relative="1" as="geometry">
            <mxPoint x="720" y="1120" as="sourcePoint" />
            <mxPoint x="770" y="1070" as="targetPoint" />
          </mxGeometry>
        </mxCell>
        <mxCell id="Wo51BPqTIGcGAbiIUXaj-57" value="" style="endArrow=classic;html=1;rounded=0;exitX=0.004;exitY=0.524;exitDx=0;exitDy=0;exitPerimeter=0;entryX=1.011;entryY=0.467;entryDx=0;entryDy=0;entryPerimeter=0;" edge="1" parent="1" source="Wo51BPqTIGcGAbiIUXaj-34" target="Wo51BPqTIGcGAbiIUXaj-38">
          <mxGeometry width="50" height="50" relative="1" as="geometry">
            <mxPoint x="-270.71067811865476" y="1050" as="sourcePoint" />
            <mxPoint x="-270.71067811865476" y="1000" as="targetPoint" />
          </mxGeometry>
        </mxCell>
      </root>
    </mxGraphModel>
  </diagram>
  <diagram id="mpnoGL42FYZwrAB0uJnT" name="Страница — 2">
    <mxGraphModel dx="1434" dy="758" grid="1" gridSize="10" guides="1" tooltips="1" connect="1" arrows="1" fold="1" page="1" pageScale="1" pageWidth="827" pageHeight="1169" math="0" shadow="0">
      <root>
        <mxCell id="0" />
        <mxCell id="1" parent="0" />
        <mxCell id="pRfk96fdTb5zv6RNGghd-1" value="" style="strokeWidth=1;shadow=0;dashed=0;align=center;html=1;shape=mxgraph.mockup.containers.browserWindow;rSize=0;strokeColor=#666666;strokeColor2=#008cff;strokeColor3=#c4c4c4;mainText=,;recursiveResize=0;" vertex="1" parent="1">
          <mxGeometry x="500" y="120" width="370" height="580" as="geometry" />
        </mxCell>
        <mxCell id="pRfk96fdTb5zv6RNGghd-2" value="Page" style="strokeWidth=1;shadow=0;dashed=0;align=center;html=1;shape=mxgraph.mockup.containers.anchor;fontSize=17;fontColor=#666666;align=left;whiteSpace=wrap;" vertex="1" parent="pRfk96fdTb5zv6RNGghd-1">
          <mxGeometry x="60" y="12" width="110" height="26" as="geometry" />
        </mxCell>
        <mxCell id="pRfk96fdTb5zv6RNGghd-3" value="https://www.lifeverseinsights" style="strokeWidth=1;shadow=0;dashed=0;align=center;html=1;shape=mxgraph.mockup.containers.anchor;rSize=0;fontSize=17;fontColor=#666666;align=left;" vertex="1" parent="pRfk96fdTb5zv6RNGghd-1">
          <mxGeometry x="130" y="60" width="250" height="26" as="geometry" />
        </mxCell>
        <mxCell id="pRfk96fdTb5zv6RNGghd-4" value="&lt;b&gt;&lt;font style=&quot;font-size: 22px;&quot;&gt;Фізичне здоров&#39;я&lt;/font&gt;&lt;/b&gt;" style="text;html=1;strokeColor=none;fillColor=none;align=center;verticalAlign=middle;whiteSpace=wrap;rounded=0;" vertex="1" parent="pRfk96fdTb5zv6RNGghd-1">
          <mxGeometry x="82.5" y="170" width="205" height="30" as="geometry" />
        </mxCell>
        <mxCell id="pRfk96fdTb5zv6RNGghd-5" value="&lt;span style=&quot;white-space: pre;&quot;&gt;&#x9;&lt;/span&gt;&lt;span style=&quot;white-space: pre;&quot;&gt;&#x9;&lt;/span&gt;&amp;nbsp; &amp;nbsp; &amp;nbsp;Написати&lt;br&gt;&lt;span style=&quot;white-space: pre;&quot;&gt;&#x9;&lt;/span&gt;&amp;nbsp; медичному працівнику" style="strokeWidth=1;shadow=0;dashed=0;align=center;html=1;shape=mxgraph.mockup.text.textBox;fontColor=#666666;align=left;fontSize=17;spacingLeft=4;spacingTop=-3;whiteSpace=wrap;strokeColor=#666666;mainText=" vertex="1" parent="pRfk96fdTb5zv6RNGghd-1">
          <mxGeometry x="40" y="250" width="290" height="40" as="geometry" />
        </mxCell>
        <mxCell id="pRfk96fdTb5zv6RNGghd-6" value="" style="strokeWidth=1;shadow=0;dashed=0;align=center;html=1;shape=mxgraph.mockup.containers.browserWindow;rSize=0;strokeColor=#666666;strokeColor2=#008cff;strokeColor3=#c4c4c4;mainText=,;recursiveResize=0;" vertex="1" parent="1">
          <mxGeometry x="20" y="120" width="370" height="580" as="geometry" />
        </mxCell>
        <mxCell id="pRfk96fdTb5zv6RNGghd-7" value="Page" style="strokeWidth=1;shadow=0;dashed=0;align=center;html=1;shape=mxgraph.mockup.containers.anchor;fontSize=17;fontColor=#666666;align=left;whiteSpace=wrap;" vertex="1" parent="pRfk96fdTb5zv6RNGghd-6">
          <mxGeometry x="60" y="12" width="110" height="26" as="geometry" />
        </mxCell>
        <mxCell id="pRfk96fdTb5zv6RNGghd-8" value="https://www.lifeverseinsights" style="strokeWidth=1;shadow=0;dashed=0;align=center;html=1;shape=mxgraph.mockup.containers.anchor;rSize=0;fontSize=17;fontColor=#666666;align=left;" vertex="1" parent="pRfk96fdTb5zv6RNGghd-6">
          <mxGeometry x="130" y="60" width="250" height="26" as="geometry" />
        </mxCell>
        <mxCell id="pRfk96fdTb5zv6RNGghd-9" value="Chat" style="strokeWidth=1;shadow=0;dashed=0;align=center;html=1;shape=mxgraph.mockup.containers.window;align=left;verticalAlign=top;spacingLeft=8;strokeColor2=#008cff;strokeColor3=#c4c4c4;fontColor=#666666;mainText=;fontSize=17;labelBackgroundColor=none;whiteSpace=wrap;" vertex="1" parent="pRfk96fdTb5zv6RNGghd-6">
          <mxGeometry x="10" y="120" width="350" height="450" as="geometry" />
        </mxCell>
        <mxCell id="pRfk96fdTb5zv6RNGghd-10" value="" style="verticalLabelPosition=bottom;shadow=0;dashed=0;align=center;html=1;verticalAlign=top;strokeWidth=1;shape=mxgraph.mockup.containers.userMale;strokeColor=#666666;strokeColor2=#008cff;" vertex="1" parent="pRfk96fdTb5zv6RNGghd-6">
          <mxGeometry x="30" y="240" width="60" height="60" as="geometry" />
        </mxCell>
        <mxCell id="pRfk96fdTb5zv6RNGghd-11" value="" style="shape=callout;whiteSpace=wrap;html=1;perimeter=calloutPerimeter;size=30;position=0.11;position2=0;" vertex="1" parent="pRfk96fdTb5zv6RNGghd-6">
          <mxGeometry x="100" y="180" width="240" height="80" as="geometry" />
        </mxCell>
        <mxCell id="pRfk96fdTb5zv6RNGghd-12" value="" style="verticalLabelPosition=bottom;shadow=0;dashed=0;align=center;html=1;verticalAlign=top;strokeWidth=1;shape=mxgraph.mockup.containers.userFemale;strokeColor=#666666;strokeColor2=#008cff;" vertex="1" parent="pRfk96fdTb5zv6RNGghd-6">
          <mxGeometry x="280" y="430" width="60" height="60" as="geometry" />
        </mxCell>
        <mxCell id="pRfk96fdTb5zv6RNGghd-13" value="" style="shape=callout;whiteSpace=wrap;html=1;perimeter=calloutPerimeter;size=30;position=0.8;position2=0.97;base=19;" vertex="1" parent="pRfk96fdTb5zv6RNGghd-6">
          <mxGeometry x="30" y="370" width="240" height="80" as="geometry" />
        </mxCell>
        <mxCell id="pRfk96fdTb5zv6RNGghd-14" value="" style="endArrow=classic;html=1;rounded=0;exitX=0.004;exitY=0.524;exitDx=0;exitDy=0;exitPerimeter=0;" edge="1" parent="1" source="pRfk96fdTb5zv6RNGghd-5">
          <mxGeometry width="50" height="50" relative="1" as="geometry">
            <mxPoint x="429.28932188134524" y="460" as="sourcePoint" />
            <mxPoint x="390" y="391" as="targetPoint" />
          </mxGeometry>
        </mxCell>
      </root>
    </mxGraphModel>
  </diagram>
  <diagram id="_tpnhEzqTxR2vxqkc4Xw" name="Страница — 3">
    <mxGraphModel dx="1434" dy="758" grid="1" gridSize="10" guides="1" tooltips="1" connect="1" arrows="1" fold="1" page="1" pageScale="1" pageWidth="827" pageHeight="1169" math="0" shadow="0">
      <root>
        <mxCell id="0" />
        <mxCell id="1" parent="0" />
        <mxCell id="PPqgclq6LIoEBpEB3-Vm-1" value="" style="strokeWidth=1;shadow=0;dashed=0;align=center;html=1;shape=mxgraph.mockup.containers.browserWindow;rSize=0;strokeColor=#666666;strokeColor2=#008cff;strokeColor3=#c4c4c4;mainText=,;recursiveResize=0;" vertex="1" parent="1">
          <mxGeometry x="10" y="30" width="370" height="580" as="geometry" />
        </mxCell>
        <mxCell id="PPqgclq6LIoEBpEB3-Vm-2" value="Page" style="strokeWidth=1;shadow=0;dashed=0;align=center;html=1;shape=mxgraph.mockup.containers.anchor;fontSize=17;fontColor=#666666;align=left;whiteSpace=wrap;" vertex="1" parent="PPqgclq6LIoEBpEB3-Vm-1">
          <mxGeometry x="60" y="12" width="110" height="26" as="geometry" />
        </mxCell>
        <mxCell id="PPqgclq6LIoEBpEB3-Vm-3" value="https://www.lifeverseinsights" style="strokeWidth=1;shadow=0;dashed=0;align=center;html=1;shape=mxgraph.mockup.containers.anchor;rSize=0;fontSize=17;fontColor=#666666;align=left;" vertex="1" parent="PPqgclq6LIoEBpEB3-Vm-1">
          <mxGeometry x="130" y="60" width="250" height="26" as="geometry" />
        </mxCell>
        <mxCell id="PPqgclq6LIoEBpEB3-Vm-4" value="&lt;b&gt;&lt;font style=&quot;font-size: 22px;&quot;&gt;Меню&lt;/font&gt;&lt;/b&gt;" style="text;html=1;strokeColor=none;fillColor=none;align=center;verticalAlign=middle;whiteSpace=wrap;rounded=0;" vertex="1" parent="PPqgclq6LIoEBpEB3-Vm-1">
          <mxGeometry x="155" y="170" width="60" height="30" as="geometry" />
        </mxCell>
        <mxCell id="PPqgclq6LIoEBpEB3-Vm-5" value="&amp;nbsp; &amp;nbsp; &amp;nbsp; &amp;nbsp; &amp;nbsp; &amp;nbsp; &amp;nbsp; &amp;nbsp;Фізичне здоров&#39;я" style="strokeWidth=1;shadow=0;dashed=0;align=center;html=1;shape=mxgraph.mockup.text.textBox;fontColor=#666666;align=left;fontSize=17;spacingLeft=4;spacingTop=-3;whiteSpace=wrap;strokeColor=#666666;mainText=" vertex="1" parent="PPqgclq6LIoEBpEB3-Vm-1">
          <mxGeometry x="40" y="250" width="290" height="40" as="geometry" />
        </mxCell>
        <mxCell id="PPqgclq6LIoEBpEB3-Vm-6" value="&lt;span style=&quot;white-space: pre;&quot;&gt;&#x9;&lt;/span&gt;&lt;span style=&quot;white-space: pre;&quot;&gt;&#x9;&lt;/span&gt;&amp;nbsp; &amp;nbsp; Література" style="strokeWidth=1;shadow=0;dashed=0;align=center;html=1;shape=mxgraph.mockup.text.textBox;fontColor=#666666;align=left;fontSize=17;spacingLeft=4;spacingTop=-3;whiteSpace=wrap;strokeColor=#666666;mainText=" vertex="1" parent="PPqgclq6LIoEBpEB3-Vm-1">
          <mxGeometry x="40" y="310" width="290" height="40" as="geometry" />
        </mxCell>
        <mxCell id="PPqgclq6LIoEBpEB3-Vm-7" value="&lt;span style=&quot;white-space: pre;&quot;&gt;&#x9;&lt;span style=&quot;white-space: pre;&quot;&gt;&#x9;&lt;/span&gt; &lt;/span&gt;&amp;nbsp; &amp;nbsp; Підтримка" style="strokeWidth=1;shadow=0;dashed=0;align=center;html=1;shape=mxgraph.mockup.text.textBox;fontColor=#666666;align=left;fontSize=17;spacingLeft=4;spacingTop=-3;whiteSpace=wrap;strokeColor=#666666;mainText=" vertex="1" parent="PPqgclq6LIoEBpEB3-Vm-1">
          <mxGeometry x="40" y="370" width="290" height="40" as="geometry" />
        </mxCell>
        <mxCell id="PPqgclq6LIoEBpEB3-Vm-8" value="" style="strokeWidth=1;shadow=0;dashed=0;align=center;html=1;shape=mxgraph.mockup.containers.browserWindow;rSize=0;strokeColor=#666666;strokeColor2=#008cff;strokeColor3=#c4c4c4;mainText=,;recursiveResize=0;" vertex="1" parent="1">
          <mxGeometry x="490" y="30" width="370" height="580" as="geometry" />
        </mxCell>
        <mxCell id="PPqgclq6LIoEBpEB3-Vm-9" value="Page" style="strokeWidth=1;shadow=0;dashed=0;align=center;html=1;shape=mxgraph.mockup.containers.anchor;fontSize=17;fontColor=#666666;align=left;whiteSpace=wrap;" vertex="1" parent="PPqgclq6LIoEBpEB3-Vm-8">
          <mxGeometry x="60" y="12" width="110" height="26" as="geometry" />
        </mxCell>
        <mxCell id="PPqgclq6LIoEBpEB3-Vm-10" value="https://www.lifeverseinsights" style="strokeWidth=1;shadow=0;dashed=0;align=center;html=1;shape=mxgraph.mockup.containers.anchor;rSize=0;fontSize=17;fontColor=#666666;align=left;" vertex="1" parent="PPqgclq6LIoEBpEB3-Vm-8">
          <mxGeometry x="130" y="60" width="250" height="26" as="geometry" />
        </mxCell>
        <mxCell id="PPqgclq6LIoEBpEB3-Vm-11" value="&lt;b&gt;&lt;font style=&quot;font-size: 22px;&quot;&gt;Література&lt;/font&gt;&lt;/b&gt;" style="text;html=1;strokeColor=none;fillColor=none;align=center;verticalAlign=middle;whiteSpace=wrap;rounded=0;" vertex="1" parent="PPqgclq6LIoEBpEB3-Vm-8">
          <mxGeometry x="155" y="170" width="60" height="30" as="geometry" />
        </mxCell>
        <mxCell id="PPqgclq6LIoEBpEB3-Vm-12" value="&lt;span style=&quot;white-space: pre;&quot;&gt;&#x9;&lt;/span&gt;&lt;span style=&quot;white-space: pre;&quot;&gt;&#x9;&lt;/span&gt;&lt;span style=&quot;white-space: pre;&quot;&gt;&#x9;&lt;/span&gt;&amp;nbsp;Книги" style="strokeWidth=1;shadow=0;dashed=0;align=center;html=1;shape=mxgraph.mockup.text.textBox;fontColor=#666666;align=left;fontSize=17;spacingLeft=4;spacingTop=-3;whiteSpace=wrap;strokeColor=#666666;mainText=" vertex="1" parent="PPqgclq6LIoEBpEB3-Vm-8">
          <mxGeometry x="40" y="250" width="290" height="40" as="geometry" />
        </mxCell>
        <mxCell id="PPqgclq6LIoEBpEB3-Vm-13" value="&lt;span style=&quot;white-space: pre;&quot;&gt;&#x9;&lt;/span&gt;&lt;span style=&quot;white-space: pre;&quot;&gt;&#x9;&lt;/span&gt;&lt;span style=&quot;white-space: pre;&quot;&gt;&#x9;&lt;/span&gt;&amp;nbsp;Вірші" style="strokeWidth=1;shadow=0;dashed=0;align=center;html=1;shape=mxgraph.mockup.text.textBox;fontColor=#666666;align=left;fontSize=17;spacingLeft=4;spacingTop=-3;whiteSpace=wrap;strokeColor=#666666;mainText=" vertex="1" parent="PPqgclq6LIoEBpEB3-Vm-8">
          <mxGeometry x="40" y="310" width="290" height="40" as="geometry" />
        </mxCell>
        <mxCell id="PPqgclq6LIoEBpEB3-Vm-14" value="&lt;span style=&quot;white-space: pre;&quot;&gt;&#x9;&lt;span style=&quot;white-space: pre;&quot;&gt;&#x9;&lt;/span&gt; &lt;/span&gt;&amp;nbsp; &amp;nbsp; &amp;nbsp; &amp;nbsp;Автори" style="strokeWidth=1;shadow=0;dashed=0;align=center;html=1;shape=mxgraph.mockup.text.textBox;fontColor=#666666;align=left;fontSize=17;spacingLeft=4;spacingTop=-3;whiteSpace=wrap;strokeColor=#666666;mainText=" vertex="1" parent="PPqgclq6LIoEBpEB3-Vm-8">
          <mxGeometry x="40" y="370" width="290" height="40" as="geometry" />
        </mxCell>
        <mxCell id="PPqgclq6LIoEBpEB3-Vm-15" value="" style="endArrow=classic;html=1;rounded=0;exitX=0.994;exitY=0.494;exitDx=0;exitDy=0;exitPerimeter=0;entryX=-0.009;entryY=0.569;entryDx=0;entryDy=0;entryPerimeter=0;" edge="1" parent="1" source="PPqgclq6LIoEBpEB3-Vm-6" target="PPqgclq6LIoEBpEB3-Vm-8">
          <mxGeometry width="50" height="50" relative="1" as="geometry">
            <mxPoint x="450" y="440" as="sourcePoint" />
            <mxPoint x="500" y="390" as="targetPoint" />
          </mxGeometry>
        </mxCell>
      </root>
    </mxGraphModel>
  </diagram>
</mxfile>
